<svg width="24" height="24" viewBox="0 0 24 24" fill="none" xmlns="http://www.w3.org/2000/svg">
<path fill-rule="evenodd" clip-rule="evenodd" d="M12 3.5C7.3135 3.5 3.5 7.3135 3.5 12C3.5 16.6865 7.3135 20.5 12 20.5C16.6865 20.5 20.5 16.6865 20.5 12C20.5 7.3135 16.6865 3.5 12 3.5ZM2 12C2 6.48507 6.48507 2 12 2C17.5149 2 22 6.48507 22 12C22 17.5149 17.5149 22 12 22C6.48507 22 2 17.5149 2 12Z" fill="#DADEE3"/>
<path d="M13 17C13 17.5523 12.5523 18 12 18C11.4477 18 11 17.5523 11 17C11 16.4477 11.4477 16 12 16C12.5523 16 13 16.4477 13 17Z" fill="#DADEE3"/>
<path d="M9.5 9.25C9.5 8.25 10.5 7.25 12 7.25C13.7155 7.25 14.5 8.25 14.5 9.75C14.5 11.75 12.5 11.75 12 13.25V14" stroke="#DADEE3" stroke-width="1.5" stroke-linecap="round" stroke-linejoin="round"/>
</svg>
