<svg width="20" height="20" viewBox="0 0 20 20" fill="none" xmlns="http://www.w3.org/2000/svg">
<path d="M17 0H3C1.34315 0 0 1.34315 0 3V17C0 18.6569 1.34315 20 3 20H17C18.6569 20 20 18.6569 20 17V3C20 1.34315 18.6569 0 17 0Z" fill="#77C12D"/>
<path d="M9.99999 12.9091C11.205 12.9091 12.1818 11.9323 12.1818 10.7273C12.1818 9.5223 11.205 8.54546 9.99999 8.54546C8.795 8.54546 7.81816 9.5223 7.81816 10.7273C7.81816 11.9323 8.795 12.9091 9.99999 12.9091Z" fill="white"/>
<path fill-rule="evenodd" clip-rule="evenodd" d="M3 14C3 15.1046 3.89543 16 5 16H15C16.1046 16 17 15.1046 17 14L17 8.06113C17 6.95656 16.1046 6.06113 15 6.06113H13.4545L12.599 4.88476C12.2227 4.36727 11.6214 4.0611 10.9815 4.0611H8.99984C8.37042 4.0611 7.77771 4.3574 7.39999 4.86089L6.54543 6.00001H5C3.89543 6.00001 3 6.89544 3 8.00001V14ZM9.99999 14.1819L10.0101 14.1818C11.9133 14.1764 13.4545 12.6318 13.4545 10.7273C13.4545 8.81938 11.9079 7.27272 9.99999 7.27272C8.09208 7.27272 6.54543 8.81938 6.54543 10.7273C6.54543 12.6318 8.08667 14.1764 9.98989 14.1818L9.99999 14.1819Z" fill="white"/>
</svg>
