<svg width="24" height="24" viewBox="0 0 24 24" fill="none" xmlns="http://www.w3.org/2000/svg">
<path d="M15 11.9102L8.21417 18.696C8.01382 18.8964 7.77099 19.0469 7.49133 19.0924C7.05367 19.1636 6.21979 19.25 4.75 19.25C4.75 17.7802 4.83641 16.9463 4.90763 16.5086C4.95314 16.229 5.10362 15.9861 5.30398 15.7857L12.0897 9L15 11.9102Z" stroke="#DADEE3" stroke-width="1.5" stroke-linecap="round" stroke-linejoin="round"/>
<path d="M17.59 3.49995C18.3937 2.69632 19.6966 2.69632 20.5002 3.49995C21.3038 4.30358 21.3038 5.60653 20.5002 6.41016L14.9551 11.9551L12.0449 9.0449L17.59 3.49995Z" fill="#DADEE3"/>
<path d="M10 7L12.0449 9.0449M17 14L14.9551 11.9551M12.0449 9.0449L17.59 3.49995C18.3936 2.69632 19.6966 2.69632 20.5002 3.49995C21.3038 4.30358 21.3038 5.60653 20.5002 6.41016L14.9551 11.9551M12.0449 9.0449L14.9551 11.9551" stroke="#DADEE3" stroke-width="1.5" stroke-linecap="round" stroke-linejoin="round"/>
<path d="M7.5 19L5 16.5L6.25 17.75L5 19" stroke="#DADEE3" stroke-width="1.5"/>
</svg>
