<svg width="24" height="24" viewBox="0 0 24 24" fill="none" xmlns="http://www.w3.org/2000/svg">
<path d="M17.6726 18.4785L18.2145 18.9969L17.6726 18.4785ZM21 15H21.75C21.75 14.5858 21.4142 14.25 21 14.25V15ZM20.25 19.3481C20.25 19.7624 20.5858 20.0981 21 20.0981C21.4142 20.0981 21.75 19.7624 21.75 19.3481H20.25ZM16.8407 14.25C16.4265 14.25 16.0907 14.5858 16.0907 15C16.0907 15.4142 16.4265 15.75 16.8407 15.75V14.25ZM4.71773 14.7824C4.59752 14.386 4.17874 14.1621 3.78235 14.2823C3.38596 14.4025 3.16207 14.8213 3.28227 15.2176L4.71773 14.7824ZM17.1306 17.9601C14.21 21.0133 9.48911 21.0133 6.56849 17.9601L5.48455 18.9969C8.99587 22.6677 14.7032 22.6677 18.2145 18.9969L17.1306 17.9601ZM18.2145 18.9969L21.542 15.5184L20.458 14.4816L17.1306 17.9601L18.2145 18.9969ZM20.25 15V19.3481H21.75V15H20.25ZM21 14.25H16.8407V15.75H21V14.25ZM6.56849 17.9601C5.68808 17.0397 5.07085 15.9468 4.71773 14.7824L3.28227 15.2176C3.70083 16.5979 4.43461 17.8993 5.48455 18.9969L6.56849 17.9601Z" fill="#DADEE3"/>
<path d="M6.32744 5.52148L5.78547 5.00305L6.32744 5.52148ZM3 9L2.25 9C2.25 9.41421 2.58579 9.75 3 9.75L3 9ZM3.75 4.65186C3.75 4.23764 3.41421 3.90186 3 3.90186C2.58579 3.90186 2.25 4.23764 2.25 4.65186L3.75 4.65186ZM7.1593 9.75C7.57351 9.75 7.9093 9.41421 7.9093 9C7.9093 8.58579 7.57351 8.25 7.1593 8.25L7.1593 9.75ZM19.2823 9.21765C19.4025 9.61404 19.8213 9.83793 20.2176 9.71773C20.614 9.59753 20.8379 9.17875 20.7177 8.78236L19.2823 9.21765ZM6.86941 6.03992C9.79002 2.9867 14.5109 2.9867 17.4315 6.03992L18.5154 5.00306C15.0041 1.33232 9.29679 1.33232 5.78547 5.00305L6.86941 6.03992ZM5.78547 5.00305L2.45803 8.48157L3.54197 9.51843L6.86941 6.03992L5.78547 5.00305ZM3.75 9L3.75 4.65186L2.25 4.65186L2.25 9L3.75 9ZM3 9.75L7.1593 9.75L7.1593 8.25L3 8.25L3 9.75ZM17.4315 6.03992C18.3119 6.9603 18.9292 8.05317 19.2823 9.21765L20.7177 8.78236C20.2992 7.40211 19.5654 6.10067 18.5154 5.00306L17.4315 6.03992Z" fill="#DADEE3"/>
</svg>
