<svg width="24" height="24" viewBox="0 0 24 24" fill="none" xmlns="http://www.w3.org/2000/svg">
<path fill-rule="evenodd" clip-rule="evenodd" d="M8.76688 2.31876C8.84986 1.68868 9.39405 1.25 10 1.25H14C14.606 1.25 15.1502 1.68868 15.2332 2.31876L15.5536 4.55284C15.944 4.73909 16.3141 4.95557 16.6662 5.19915L18.7705 4.35403L18.7821 4.3494L18.7937 4.34516C19.3178 4.15459 19.9929 4.32618 20.313 4.90102L22.3094 8.35467L22.314 8.36271L22.3185 8.37086C22.6028 8.89218 22.4989 9.56859 22.0048 9.95866L22.002 9.96081L20.2204 11.3541C20.2384 11.5605 20.25 11.7752 20.25 12C20.25 12.2248 20.2384 12.4395 20.2204 12.6459L22.002 14.0392L22.0048 14.0413C22.4989 14.4314 22.6028 15.1078 22.3185 15.6291L22.314 15.6373L22.3094 15.6453L20.313 19.099C20.0054 19.6514 19.3464 19.8714 18.7767 19.6484L18.7705 19.646L18.7705 19.646L16.6626 18.7994C16.3146 19.0381 15.9457 19.2575 15.5537 19.4461L15.2332 21.6813C15.1502 22.3113 14.606 22.75 14 22.75H10C9.39406 22.75 8.84987 22.3113 8.76688 21.6813L8.44652 19.4472C8.05611 19.2609 7.68594 19.0444 7.33389 18.8009L5.22954 19.646L5.21802 19.6506L5.20634 19.6548C4.6823 19.8454 4.0072 19.6738 3.68708 19.0991L1.69071 15.6453L1.68606 15.6373L1.68161 15.6291C1.39726 15.1078 1.50121 14.4314 1.9953 14.0413L1.99803 14.0392L1.99803 14.0392L3.77996 12.6457C3.76177 12.4364 3.75004 12.2198 3.75004 12C3.75004 11.7802 3.76177 11.5636 3.77996 11.3543L1.99803 9.96081L1.9953 9.95866C1.5232 9.58595 1.3668 8.90701 1.69213 8.35221L3.68707 4.90096C3.99472 4.34859 4.65366 4.12865 5.22334 4.35157L5.22955 4.354L5.22954 4.35403L7.33743 5.20057C7.68548 4.96187 8.05442 4.74254 8.44638 4.55387L8.76688 2.31876ZM10.2204 2.75L9.87244 5.17646L9.81153 5.60124L9.41445 5.76398C8.87603 5.98464 8.37126 6.28908 7.89004 6.65L7.55229 6.90331L7.16053 6.74597L4.88208 5.83093L3.09824 8.91698L5.03204 10.4292L5.36698 10.6911L5.31424 11.113C5.27617 11.4177 5.25004 11.7136 5.25004 12C5.25004 12.2864 5.27617 12.5823 5.31424 12.887L5.36698 13.3089L5.03204 13.5708L3.09824 15.083L4.88208 18.1691L7.16053 17.254L7.5579 17.0944L7.89732 17.3555C8.36839 17.7179 8.87076 18.0132 9.41445 18.236L9.81153 18.3988L9.87244 18.8235L10.2204 21.25H13.7797L14.1276 18.8235L14.1885 18.3988L14.5856 18.236C15.124 18.0154 15.6288 17.7109 16.11 17.35L16.4478 17.0967L16.8395 17.254L19.118 18.1691L20.9018 15.083L18.968 13.5708L18.6331 13.3089L18.6858 12.887C18.724 12.5816 18.75 12.296 18.75 12C18.75 11.704 18.724 11.4184 18.6858 11.113L18.6331 10.6911L18.968 10.4292L20.9018 8.91698L19.118 5.83093L16.8395 6.74597L16.4422 6.90556L16.1028 6.64447C15.6317 6.28211 15.1293 5.9868 14.5856 5.76398L14.1885 5.60124L14.1276 5.17646L13.7797 2.75H10.2204ZM9.50067 12C9.50067 13.3773 10.6234 14.5 12.0007 14.5C13.378 14.5 14.5007 13.3773 14.5007 12C14.5007 10.6227 13.378 9.5 12.0007 9.5C10.6234 9.5 9.50067 10.6227 9.50067 12ZM8.00067 12C8.00067 14.2057 9.79495 16 12.0007 16C14.2064 16 16.0007 14.2057 16.0007 12C16.0007 9.79429 14.2064 8 12.0007 8C9.79495 8 8.00067 9.79429 8.00067 12Z" fill="#DADEE3"/>
</svg>
